<?xml version="1.0" encoding="UTF-8"?>
<svg width="786.181818px" height="162.363652px" viewBox="0 0 786.181818 162.363652" version="1.1" xmlns="http://www.w3.org/2000/svg" xmlns:xlink="http://www.w3.org/1999/xlink">
    <title>CityPress</title>
    <g id="Page-1" stroke="none" stroke-width="1" fill="none" fill-rule="evenodd">
        <g id="CityPress" transform="translate(0.000000, -0.000000)" fill="#CE171F" fill-rule="nonzero">
            <g id="Group-24">
                <path d="M416.381776,62.6552026 C420.974713,63.4368806 425.246894,61.3373942 427.911071,57.8761368 C429.797098,55.426736 430.162617,52.6079265 430.299024,49.902042 L430.331516,49.1672357 C430.632226,41.4501757 428.457623,34.9812271 418.495181,34.9769336 C416.72469,34.9758658 416.177083,35.5613201 416.196075,37.3562844 C416.274154,44.9779132 416.214012,52.6006143 416.221398,60.2233154 L416.251019,61.0511006 L416.251019,61.0511006 L416.381776,62.6552026 Z M381.372897,69.6763654 L381.388724,69.6763654 L381.387668,33.6580574 L381.387668,33.6580574 L381.370487,32.6801248 C381.270967,30.3277879 380.671242,29.9364789 377.877284,29.518059 C375.544414,29.168502 373.17145,29.0023016 370.88817,28.4500874 C370.120043,28.2645863 369.036435,27.1665913 369.009001,26.4503212 C368.841237,22.0830035 368.986844,17.7049632 368.921427,13.3322842 C368.892938,11.4440332 369.953334,11.3260845 371.362974,11.3314458 L392.120348,11.3389517 C406.295885,11.3764808 420.477751,11.1941965 434.644847,11.5780658 C442.912766,11.801096 450.588764,14.4388572 456.828743,20.3470135 C461.043947,24.3379677 464.013055,29.2392712 464.751639,34.9940942 C465.529262,41.052367 466.03994,47.2768401 465.563026,53.3383297 C464.93945,61.2516134 462.047366,68.6684404 456.519593,74.4682983 C451.419143,79.8199513 445.094754,83.4913718 437.735293,84.5571989 C431.507975,85.4589702 425.201523,85.8428395 418.917229,86.2588766 C416.888233,86.3929092 416.11272,86.9815803 416.15809,89.1261016 C416.279429,94.8691297 416.295256,100.618591 416.164421,106.36162 C416.11061,108.705581 417.092927,109.699567 419.213718,109.801432 C423.76234,110.021245 428.313072,110.172434 432.859584,110.41262 C435.046847,110.527352 437.226725,110.778261 439.408713,110.968051 C440.939692,111.102084 441.583315,111.904135 441.559048,113.506092 C441.498906,117.535648 441.506292,121.567348 441.579095,125.596904 C441.613914,127.51625 440.973456,128.384781 438.947626,128.380554 C416.41765,128.332241 393.887674,128.332241 371.357698,128.363336 C369.65579,128.365481 368.871216,127.795038 368.889773,126.007579 C368.936198,121.806462 368.95308,117.6032 368.871216,113.402083 C368.840182,111.656443 369.69694,110.831874 371.208927,110.654951 C373.300174,110.411548 375.412524,110.359007 377.511158,110.170289 C380.483431,109.902224 381.370787,108.917889 381.371842,105.953088 L381.372897,69.6763654 L381.372897,69.6763654 Z M96.6974164,38.6618571 L96.7501609,38.6618571 L96.7501609,38.6618571 L96.7356054,49.3131132 C96.739589,51.0882455 96.7511951,52.8632622 96.7770502,54.6380476 C96.8049738,56.600474 96.1141244,57.3246781 94.1398259,57.1217761 C87.5643466,56.4464766 80.9754226,55.9074857 74.4051142,55.1905653 C73.7990697,55.1239719 72.9220634,54.2343247 72.7927877,53.5996056 C72.2336272,50.8359765 71.7305436,48.059861 71.2605546,45.278042 L70.5775192,41.1018836 C70.0549581,37.8117497 69.2943956,36.8205713 66.2048638,36.5373943 L65.6350506,36.4944476 C60.2261552,36.1656423 54.898962,35.8191481 49.6751894,38.2914309 C44.2766361,40.8448744 40.8989205,44.9497377 38.6815837,50.2636888 C36.5862831,55.2883745 35.6420534,60.5950419 35.7278924,65.9995185 L35.7900902,70.4257246 C35.8628563,74.859377 36.0241923,79.3007845 36.7858848,83.6186949 C38.2389437,91.8533942 41.6094198,99.2744044 50.1467872,102.604078 C56.4399284,105.059712 62.9254318,104.612288 69.3250962,102.96514 C70.0314587,102.783048 70.7016239,101.368977 70.8877809,100.426263 C71.4124679,97.7694613 71.8746429,95.0987855 72.3031105,92.4225603 L73.075675,87.4264723 C73.5125017,84.7803244 73.8932859,84.6528708 77.0309623,84.6425696 C82.572236,84.6248807 88.1166124,84.7382977 93.6537493,84.5895029 C96.0975771,84.52395 96.8225553,85.4781096 96.8039396,87.7974354 L96.7171821,98.8832343 C96.6893082,104.426367 96.7069311,109.9689 96.8701287,115.506564 C96.9714809,118.944452 95.6632108,120.728949 92.7322721,121.862078 C86.8777281,124.126635 80.9556615,126.108272 74.7298602,126.973634 L72.8527716,127.198921 C69.8297886,127.503794 66.8223186,128.23112 63.8034724,128.263376 L58.7271064,128.339708 C53.6449231,128.418089 48.5548862,128.441305 43.5433843,127.857572 C31.6872511,126.476798 21.1083618,121.908902 12.8688456,112.811609 C9.04538739,108.589167 6.53226773,103.579048 4.49384845,98.3129611 C-0.227300207,86.1138692 -0.634777222,73.339368 0.587653822,60.6179334 C1.95797627,46.3575654 7.76917766,33.8816943 18.8134595,24.4535151 C24.2771678,19.7898909 30.605472,16.6110931 37.5956678,14.4572104 C47.4743999,11.41264 57.4762024,10.8684465 67.588665,11.6446767 C72.2767191,12.0046976 76.9647732,13.1097331 81.5132095,14.3833333 C85.9778751,15.634042 90.2749995,17.5007403 94.6259025,19.1510098 C96.1968609,19.746189 96.7625714,20.943831 96.7315452,22.684626 C96.6363983,28.0089823 96.6974164,33.3354197 96.6974164,38.6618571 Z M232.66344,45.3173439 L255.512036,45.3195628 L255.512036,45.3195628 L278.126984,45.3418215 C280.429702,45.3767126 280.566028,45.6621565 280.581999,48.1931831 L280.567016,56.514163 C280.570851,57.8224178 280.584682,59.1304792 280.618504,60.4381925 C280.664852,62.2310404 279.999943,62.9819901 278.415626,63.1698644 L278.000272,63.2053793 C276.055689,63.3129342 274.126796,63.7149594 271.707311,64.0564198 L278.610463,79.2270273 L278.610463,79.2270273 L279.71682,81.641109 C281.196963,84.866709 282.680244,88.0923091 284.272313,91.2636096 C284.671899,92.0593063 285.496177,92.6419819 286.124845,93.3228143 C286.684475,92.5302502 287.41984,91.8097374 287.772354,90.9346799 C289.654176,86.2649215 291.393736,81.5377311 293.272419,76.8669285 C294.903192,72.8111724 296.654258,68.8034505 298.627085,64.1222058 L294.48199,63.513291 C294.053106,63.4513729 293.631152,63.3916768 293.212494,63.334512 L291.96278,63.17092 C289.268188,62.8338208 288.872474,62.4819218 289.180591,60.1425019 L289.246221,59.6800877 C289.850831,55.6577467 290.43452,51.6291404 290.902098,47.5900918 C291.082017,46.0383788 291.772402,45.3230871 293.283926,45.3241313 L329.422427,45.3418831 L329.422427,45.3418831 C330.996714,45.3429273 331.632705,46.1135627 331.613212,47.6872044 C331.556344,51.9455395 331.561574,56.205963 331.600277,60.4653423 C331.614922,62.0985046 330.853407,62.878538 329.292719,63.1583894 C327.746675,63.4361523 325.901465,63.4424176 324.776975,64.3195636 C323.320891,65.4567208 322.090751,67.1922168 321.382584,68.923536 C317.433792,78.5784075 313.678518,88.3115956 309.844791,98.013457 C305.65018,108.630056 301.448248,119.244567 297.235855,129.853857 L295.46837,134.388201 C294.877467,135.899148 294.273912,137.404247 293.624967,138.887459 L292.613416,141.093857 C291.694995,142.998517 292.382241,143.292987 293.949205,143.431869 L300.051265,144.007496 C302.085546,144.195978 304.120874,144.366969 306.159601,144.478179 C308.511093,144.606618 309.44625,145.680078 309.428468,147.920977 C309.397087,151.762668 309.403363,155.604358 309.439974,159.446049 C309.457757,161.418583 308.597914,162.344808 306.575924,162.342719 C287.502477,162.326012 268.42903,162.324967 249.355583,162.363636 C247.504097,162.367781 246.794883,161.575216 246.805344,159.815703 C246.829403,155.556324 246.830449,151.296945 246.786515,147.037565 C246.769255,145.389262 247.44286,144.707016 248.929797,144.513062 L249.355583,144.471913 C252.680936,144.249494 255.986414,143.747224 259.305491,143.416206 C263.143403,143.032976 264.192578,139.893002 265.645524,137.138346 L265.713517,136.899219 L265.713517,136.899219 C269.016903,132.346414 267.2491,128.297967 264.91539,123.932078 C260.854673,116.337455 257.266764,108.492219 253.478017,100.75245 L239.198559,71.5956987 L238.805172,70.8581689 C238.745858,70.7337519 238.695067,70.607169 238.660896,70.4762933 C237.504419,66.0216446 234.551968,63.8312614 230.272265,63.3155981 L229.546772,63.2450598 C227.547794,63.0957361 227.019545,62.0191438 227.399257,60.1760929 C227.831619,58.0765117 228.222605,55.9685767 228.618394,53.8615698 L229.221454,50.702916 C229.491332,49.3255879 229.72146,47.9263311 230.169164,46.605391 C230.334438,46.1166954 231.020639,45.6520168 231.564578,45.4818087 C231.912385,45.3726876 232.284513,45.3314409 232.66344,45.3173439 Z M199.477228,18.8782844 C201.582857,18.8506765 202.186097,19.8342506 202.168446,21.814022 C202.106149,28.9630799 202.21413,36.1142417 202.108226,43.2622476 C202.077078,45.3861363 202.585834,46.2929179 204.865894,46.2382165 C210.421722,46.1025148 215.984818,46.2676711 221.541685,46.1645799 C223.731415,46.1235539 224.401104,46.9051533 224.348152,49.1195098 C224.205908,55.0724996 224.299353,61.0318011 224.299353,67.3645451 L202.362604,67.3645451 L202.227498,68.7211672 C202.185578,69.1447089 202.15391,69.5468171 202.15391,69.9491883 C202.149757,77.4862056 202.332328,85.0292822 202.230627,92.5617214 L202.09369,98.2087955 C201.748982,107.711067 207.640174,108.572615 213.859462,107.784704 C216.137445,107.495417 218.371821,106.836896 220.619694,106.320388 C221.876011,106.032154 222.668217,106.362466 223.040959,107.728951 C223.963989,111.106765 224.97631,114.459332 225.94191,117.824523 L226.549062,119.824222 C226.852023,120.824476 227.129492,121.828668 227.270906,122.851796 C227.373696,123.593421 226.894011,124.898892 226.313613,125.185023 C217.148729,129.694736 207.451207,132.242561 197.250121,132.154197 C191.325704,132.102651 185.381559,131.453598 179.986664,128.52707 C174.187878,125.380686 170.881999,120.205087 169.888367,113.884967 C168.995447,108.20338 168.911347,102.365053 168.801289,96.5887912 C168.679811,90.1571638 168.725949,83.7219861 168.754859,77.2868083 L168.771179,70.8517621 C168.770141,67.7495591 168.430624,67.4350258 165.304367,67.4371297 C163.145786,67.4392336 160.987205,67.4034673 158.829662,67.4339739 C157.317929,67.4550129 156.500804,66.8680243 156.508072,65.2259291 C156.530914,60.1818248 156.535067,55.1366686 156.490857,50.0915124 C156.475614,48.3557935 157.374188,47.7950228 158.644259,47.5265407 L159.370605,47.403778 C164.482051,46.697919 169.045285,44.7591736 172.875494,41.157294 C176.038091,38.183429 177.990054,34.480562 179.119701,30.3558628 C179.977319,27.2263091 180.564985,24.0147032 181.138115,20.8146687 C181.405991,19.3219505 182.185738,18.8948585 183.538615,18.9011702 C188.851486,18.925365 194.165395,18.9548197 199.477228,18.8782844 Z M145.078313,45.3094105 C147.492041,45.2834916 148.256599,46.0503431 148.223953,48.4650432 C148.09442,58.1705396 148.170244,67.879149 148.170244,77.5856831 L148.199731,77.5856831 L148.199731,106.955368 C148.200784,109.98853 148.694693,110.529166 151.769774,110.86849 C152.522747,110.951505 153.280986,110.997163 154.028694,111.111309 C155.64943,111.360354 156.531937,112.139658 156.489812,113.93382 C156.392926,117.997407 156.417148,122.064106 156.446635,126.12873 C156.457166,127.680074 155.85584,128.380544 154.209829,128.3774 C138.802831,128.348345 123.395834,128.350421 107.988836,128.380544 C106.427074,128.383627 105.91105,127.685262 105.920528,126.266743 C105.948962,122.036089 105.828908,117.799208 106.028998,113.576856 C106.069017,112.747743 107.131604,111.696565 107.990942,111.247246 C108.89451,110.775098 110.127702,110.942166 111.205034,110.76057 C113.295457,110.408794 114.408594,109.354503 114.395957,107.06225 C114.327504,94.4512271 114.327504,81.8402041 114.374894,69.2302189 C114.383319,67.034471 113.177508,65.9490492 111.358788,65.2216299 L108.830402,64.1884817 C108.407381,64.0204411 107.98255,63.8582051 107.554412,63.7073674 L106.258576,63.2946432 C104.430378,62.7799499 104.185003,61.605287 104.386147,60.0539434 L105.472176,51.6964038 C105.645432,50.3025581 105.810654,48.9077901 105.961599,47.5114079 C106.152212,45.7442251 107.191632,45.3364137 108.709163,45.3364137 L120.327071,45.3249991 L120.327071,45.3249991 C128.578187,45.3301876 136.829303,45.4080142 145.078313,45.3094105 Z M134.423487,0.360262427 C140.504051,1.33047502 145.510347,4.4317095 147.602561,10.9163047 C150.093193,18.6338559 149.526856,26.0725114 144.470497,32.5452615 C141.881825,35.8586291 137.975871,37.1820378 133.915557,37.6892189 C132.765152,37.8324356 131.584501,37.7107552 130.418451,37.7107552 C126.458262,37.8453574 122.698325,37.1055838 119.250239,34.9401037 C114.77169,32.1253027 112.780645,27.6941986 112.06099,22.6622303 C111.044086,15.5498505 112.613768,7.13775195 119.552703,2.8714009 C124.233589,-0.00693235014 129.345226,-0.450581172 134.423487,0.360262427 Z M591.766873,74.8933455 L591.853292,75.30331 L591.853292,75.30331 C593.828571,74.8777377 596.844988,75.0577475 597.516789,73.8746774 C598.361427,72.3867353 597.291483,69.7843972 597.036343,67.6638195 C597.017825,67.5056606 596.934493,67.3454207 596.848074,67.2080722 C595.656734,65.3247328 593.952026,64.1739188 591.749384,64.4454943 C588.451078,64.8523372 585.314293,69.4680795 586.12498,73.4439026 C586.757687,76.5446492 589.744269,74.1774684 591.522021,74.890224 C591.593007,74.918318 591.68457,74.8933455 591.766873,74.8933455 Z M607.487836,92.0775168 C601.39739,92.0775168 595.306945,92.1503531 589.218556,92.0369365 C587.202125,91.9994779 586.529295,92.689342 586.856451,94.6444772 C587.794709,100.257037 590.976761,103.13095 596.768857,103.489929 C601.166941,103.762545 605.677163,102.677284 610.095823,101.938515 C613.944532,101.294434 617.718139,100.199808 621.562733,99.5245113 C622.243793,99.4048516 623.56579,100.188362 623.819901,100.855335 C625.88983,106.285804 627.835275,111.767258 629.642861,117.292414 C629.866109,117.976035 629.266324,119.558664 628.684028,119.7907 C623.405298,121.893589 618.104965,123.977748 612.696608,125.699807 C603.63707,128.585166 594.313132,128.934781 584.954216,127.725698 C571.183841,125.94641 560.624325,119.188239 555.161442,106.019431 C551.190307,96.4456155 550.823028,86.121586 552.105931,75.9244998 C553.220113,67.0696832 556.785904,59.1502931 563.257003,52.8020867 C567.683892,48.4600009 572.978054,45.5715201 578.806158,43.7755843 C588.659923,40.7403904 598.570271,40.715418 608.343791,44.1501712 C616.662599,47.072989 622.683087,52.7511012 625.802383,61.0534023 C627.393923,65.2914362 628.368189,69.8832465 628.849663,74.399099 C629.374347,79.3165918 628.953571,84.3329339 629.050278,89.3034931 C629.089372,91.3699639 628.226216,92.1045703 626.250936,92.0858409 C619.996912,92.0265314 613.74186,92.06399 607.487836,92.06399 L607.487836,92.0775168 Z M772.204223,68.6417718 C768.858218,68.4317734 765.511164,68.2425668 762.167256,68.0034597 C760.450227,67.8808616 759.101967,67.3405473 759.009601,65.4669219 L759.010983,65.0104619 C759.105325,63.1620596 758.050789,61.7856341 756.365207,61.6504866 C752.563214,61.3458848 748.718244,61.2232125 744.918347,61.4571216 C743.502165,61.5434081 741.995834,62.6391427 742.001075,64.639326 C742.005268,66.6415885 742.962318,68.1032609 744.746435,68.6968704 C748.064137,69.8009217 751.475134,70.6336384 754.848393,71.5723939 C760.739543,73.2128769 766.816232,74.3855415 772.476767,76.6019609 C779.633151,79.4047126 783.799934,84.9447214 785.485515,92.6117442 C787.338817,101.037672 785.397463,108.484301 780.792513,115.401775 C777.867903,119.79303 773.432769,122.576029 768.601397,124.475372 C758.60636,128.404006 748.135418,129.056873 737.582713,127.805199 C730.837242,127.005749 724.134749,125.742639 717.471042,124.40156 C712.988736,123.499191 712.096678,122.0843 712.083051,117.57869 C712.070472,113.504512 712.057893,109.430334 712.073617,105.356156 C712.085147,102.171872 712.585161,101.60945 715.653381,101.773707 C721.156679,102.066873 726.661025,102.393306 732.152792,102.856966 C735.780776,103.163647 736.613084,103.863295 736.905545,107.24926 C737.120436,109.732856 738.615237,110.710077 740.610051,110.842105 C744.279965,111.084331 747.983422,111.118638 751.656481,110.929431 C754.363055,110.789086 755.966873,109.018653 756.109435,106.714908 C756.260382,104.26354 754.788643,102.317416 751.843069,101.700935 C747.707733,100.834951 743.486442,100.37441 739.355299,99.4928323 C732.170613,97.9615069 725.011084,96.2149851 719.300233,91.2072496 C715.220455,87.6289591 712.890201,82.8780039 712.120788,77.6924974 C710.712992,68.2072206 712.379705,59.3093156 719.451181,52.1787245 C724.114833,47.4745511 730.00703,44.662443 736.402387,43.215325 C748.286366,40.5269289 760.200744,41.3253389 772.03231,43.7704694 C775.365737,44.4597218 778.6174,45.5315456 781.92462,46.3559455 C783.362815,46.7146062 783.676241,47.6284114 783.678337,48.9268672 L783.773728,65.8826832 C783.783045,68.6383065 783.563768,69.111233 781.399035,69.0253273 L780.492714,68.9702843 C777.735824,68.7644442 774.973692,68.6365738 772.214705,68.4743968 L772.204223,68.6417718 L772.204223,68.6417718 Z M705.887339,57.6879842 C705.887339,60.6005483 705.865184,63.5120722 705.894724,66.4246362 C705.914769,68.4883959 704.897754,69.1801299 702.872165,69.0532253 C696.642424,68.6652301 690.409517,68.3198833 684.172391,68.0816771 C682.18186,68.0048622 681.242178,67.2792571 680.772499,65.5056062 L680.664535,65.0401281 C680.410281,63.7856451 679.341572,61.956971 678.319282,61.7187649 C674.086645,60.7326539 669.708418,60.1334979 665.517981,62.0370665 C663.526152,62.9420418 663.048239,65.8941335 664.688755,67.3233703 C665.664625,68.1732148 666.876814,68.9679288 668.114322,69.2831098 C674.122515,70.8111657 680.187677,72.1218195 686.209585,73.5989056 C694.48285,75.6262582 702.148439,78.893531 705.597216,87.2193034 C707.234567,91.1710287 707.943523,95.7541563 707.936306,100.050188 C707.924533,106.626342 705.856744,112.796817 700.965791,117.654558 C696.124422,122.463409 690.217508,125.129445 683.526734,126.707431 C673.819731,128.995874 664.083189,128.607879 654.401506,127.490702 C648.342673,126.790647 642.42521,124.849631 636.470822,123.364223 C634.988555,122.994952 634.134009,121.947469 634.150889,120.242579 C634.205749,115.001004 634.167769,109.758388 634.146669,104.516813 C634.139284,102.621566 634.751181,101.594887 636.980384,101.772762 C642.678408,102.22629 648.396478,102.428089 654.092392,102.894099 C657.534839,103.175994 658.429474,104.045602 658.808217,107.500111 C659.07513,109.931062 660.471943,110.884927 662.624131,110.965022 L666.0876,111.103138 C668.399522,111.183118 670.710663,111.201148 672.981011,110.930695 C674.648957,110.732017 676.828575,109.550348 677.595556,108.174162 C679.557846,104.65516 677.307543,102.835848 673.725837,101.783164 C669.753783,100.617098 665.495826,100.432982 661.427768,99.5352885 L658.304029,98.8378973 C650.688128,97.0907452 643.307945,94.8512198 638.137713,88.1305198 C635.509722,84.7124179 634.255334,80.8283057 633.749991,76.7340728 C632.642247,67.7488127 634.125569,59.4261609 640.772034,52.5545901 C644.448689,48.7557744 648.966175,46.3601905 653.843414,44.5356771 C663.172728,41.0468415 672.876566,41.1019721 682.548754,42.1952239 C689.303883,42.9587317 695.981997,44.4285364 702.671716,45.6996625 C704.728955,46.0908526 705.943846,47.2677344 705.962464,49.4343546 L705.945364,49.9520061 C705.759685,52.5192232 705.904219,55.1082847 705.904219,57.6879842 L705.887339,57.6879842 Z M510.019118,57.9993271 L511.142024,56.2527021 L511.142024,56.2527021 L512.249907,54.4965182 C515.424248,49.3209004 519.277525,44.8611385 525.171826,42.7921659 C527.13589,42.1018003 529.28234,41.4539187 531.312821,41.5431352 C536.002117,41.7481207 540.675599,42.3768844 545.345918,42.9174938 C547.021118,43.1118583 547.712705,44.1898907 547.705325,45.9359847 C547.666318,55.6180968 547.677915,65.2991468 547.719188,74.9812589 C547.72641,76.8399356 546.967352,77.5207423 545.127689,77.4729477 C538.977205,77.3146947 532.822505,77.3051358 526.672021,77.1468827 C524.924078,77.1012124 523.162429,76.8431219 521.451385,76.4713866 C520.865223,76.3449965 520.176799,75.6673761 519.954352,75.0810964 C519.542141,73.9903188 519.483103,72.7689027 519.196348,71.6228958 C518.791517,70.0053161 518.051434,68.7923968 516.050471,69.1864362 C514.329939,69.5263085 513.1787,70.0987809 513.193459,72.2760879 C513.270419,83.6564994 513.244063,95.0369109 513.176591,106.417322 C513.164994,108.354595 513.926162,109.189406 515.784801,109.351907 L528.603404,110.600938 C531.676068,110.878795 532.127941,111.145284 532.181987,113.918193 L532.187847,114.43406 C532.20577,118.340468 532.167817,122.247937 532.219475,126.153282 C532.241614,127.771924 531.615391,128.382632 529.970764,128.378383 C510.921554,128.340148 491.871291,128.338024 472.821028,128.380556 C470.928652,128.384756 470.247608,127.552069 470.261313,125.785795 C470.292941,121.710514 470.321405,117.633108 470.293995,113.557827 C470.281344,111.523904 471.329267,110.633863 473.212154,110.492604 L474.72746,110.395598 C474.979308,110.374947 475.230336,110.348512 475.479841,110.310984 C478.575114,109.842598 479.309925,108.980172 479.310979,105.855471 L479.269073,88.0204066 C479.264065,85.0478516 479.26479,82.075363 479.278363,79.1030735 L479.364746,70.1869353 C479.469116,63.4967615 478.224049,64.4930122 473.686565,62.7182415 L471.786085,61.977014 C469.315475,60.9730652 469.263903,60.5082404 469.654066,56.7810973 C470.040975,53.083924 470.633463,49.4079926 471.101549,45.7171919 C471.321887,43.9742842 472.223269,43.2701113 473.983863,43.2764839 C484.015034,43.3168438 494.046205,43.2987881 504.076321,43.2754218 C505.734654,43.2722355 506.592812,43.7246905 506.860591,45.6672731 C507.422505,49.738306 508.375545,53.7551718 509.16834,57.7932795 L510.019118,57.9993271 L510.019118,57.9993271 Z" id="Shape"></path>
            </g>
        </g>
    </g>
</svg>